<svg width="76" height="76" viewBox="0 0 76 76" fill="none" xmlns="http://www.w3.org/2000/svg">
<path d="M15.8432 37.0992C15.9635 31.263 16.0237 28.3465 17.9902 25.8512C18.348 25.3952 18.8768 24.8537 19.3202 24.4864C21.7363 22.4724 24.9283 22.4724 31.3155 22.4724C33.5955 22.4724 34.7387 22.4724 35.828 22.181C36.0539 22.1177 36.2766 22.047 36.4962 21.9689C37.5602 21.5857 38.5133 20.9239 40.4165 19.6065C47.9342 14.3974 51.6898 11.7944 54.847 12.9249C55.4518 13.1434 56.0377 13.4569 56.5602 13.8432C59.2867 15.854 59.4957 20.5407 59.9105 29.9077C60.0625 33.3784 60.167 36.3519 60.167 37.9985C60.167 39.6452 60.0625 42.6219 59.9105 46.0894C59.4957 55.4564 59.2867 60.143 56.5602 62.1539C56.0358 62.5383 55.4602 62.8474 54.8502 63.0722C51.693 64.2027 47.9342 61.5997 40.4165 56.3905C38.5133 55.0732 37.5602 54.4114 36.4962 54.0282C36.2761 53.9493 36.0533 53.8785 35.828 53.816C34.7387 53.5247 33.5987 53.5247 31.3155 53.5247C24.9283 53.5247 21.7363 53.5247 19.317 51.5107C18.8303 51.1023 18.3858 50.6461 17.9902 50.149C16.0237 47.6474 15.9635 44.734 15.8432 38.901C15.8309 38.2994 15.8309 37.7008 15.8432 37.0992Z" fill="#1396E7"/>
</svg>
